<svg width="21" height="24" viewBox="0 0 21 24" fill="none" xmlns="http://www.w3.org/2000/svg">
<path d="M14.4864 0.32119C13.1252 0.413065 11.6683 1.22307 10.7664 2.31619C9.97703 3.27807 9.31515 4.68994 9.5664 6.15619C9.3414 6.08682 9.13703 6.07932 8.8914 5.99119C8.22203 5.75307 7.45703 5.49619 6.5064 5.49619C4.61828 5.49619 2.68515 6.61932 1.4664 8.49619C-0.307345 11.2224 0.0489044 16.0206 2.7414 20.1212C3.21578 20.8412 3.7689 21.6268 4.4514 22.2512C5.1339 22.8756 5.9589 23.3518 6.9264 23.3612C7.75328 23.3706 8.3289 23.0949 8.8464 22.8662C9.3639 22.6374 9.84578 22.4349 10.7514 22.4312C10.757 22.4312 10.7608 22.4312 10.7664 22.4312C11.6683 22.4237 12.1352 22.6224 12.6414 22.8512C13.1477 23.0799 13.7177 23.3687 14.5464 23.3612C15.5327 23.3537 16.3708 22.8137 17.0664 22.1462C17.762 21.4787 18.3339 20.6593 18.8064 19.9412C19.4833 18.9099 19.7552 18.3474 20.2764 17.1962C20.3308 17.0762 20.3327 16.9374 20.2802 16.8156C20.2295 16.6937 20.1302 16.5981 20.0064 16.5512C18.3002 15.9062 17.327 14.3968 17.1864 12.8012C17.0458 11.2056 17.7208 9.56307 19.4214 8.63119C19.547 8.56369 19.6352 8.44557 19.6652 8.30682C19.6933 8.16807 19.6595 8.02182 19.5714 7.91119C18.3508 6.39432 16.6333 5.49619 14.9514 5.49619C13.8789 5.49619 13.0914 5.74932 12.4464 5.99119C12.3395 6.03244 12.2608 6.02869 12.1614 6.06619C12.8158 5.72119 13.3933 5.24307 13.8264 4.68619C14.6139 3.67557 15.2214 2.23744 14.9964 0.72619C14.9589 0.47869 14.7358 0.30244 14.4864 0.32119ZM13.9764 1.46119C13.9445 2.43057 13.6127 3.37932 13.0614 4.08619C12.4839 4.82869 11.5127 5.34244 10.5714 5.49619C10.5883 4.56432 10.9558 3.59869 11.5164 2.91619C12.1052 2.20369 13.0802 1.68994 13.9764 1.46119ZM6.5064 6.45619C6.9264 6.45619 7.9014 6.65682 8.5614 6.89119C9.2214 7.12557 9.91703 7.40119 10.7364 7.40119C11.537 7.40119 12.1708 7.12369 12.7914 6.89119C13.412 6.65869 14.0308 6.45619 14.9514 6.45619C16.1533 6.45619 17.4527 7.08057 18.4764 8.16619C16.8377 9.32307 16.0708 11.1268 16.2264 12.8762C16.382 14.6443 17.447 16.3224 19.1964 17.1962C19.1939 17.2016 19.1914 17.2071 19.1889 17.2125C18.8143 18.0284 18.5646 18.5724 18.0114 19.4162C17.552 20.1156 17.0064 20.8806 16.4064 21.4562C15.8064 22.0318 15.1708 22.3956 14.5314 22.4012C13.9145 22.4068 13.5639 22.2231 13.0314 21.9812C12.4989 21.7393 11.8108 21.4618 10.7514 21.4712C9.6939 21.4768 8.9964 21.7431 8.4564 21.9812C7.9164 22.2193 7.56203 22.4068 6.9414 22.4012C6.28515 22.3956 5.67578 22.0768 5.0964 21.5462C4.51703 21.0156 3.9939 20.2918 3.5364 19.5962C1.0164 15.7562 0.813905 11.2449 2.2614 9.02119C3.32265 7.38807 6.0864 6.45619 6.5064 6.45619Z" fill="black"/>
<path d="M6.5064 6.45619C6.9264 6.45619 7.9014 6.65682 8.5614 6.89119C9.2214 7.12557 9.91703 7.40119 10.7364 7.40119C11.537 7.40119 12.1708 7.12369 12.7914 6.89119C13.412 6.65869 14.0308 6.45619 14.9514 6.45619C16.1533 6.45619 17.4527 7.08057 18.4764 8.16619C16.8377 9.32307 16.0708 11.1268 16.2264 12.8762C16.382 14.6443 17.447 16.3224 19.1964 17.1962L19.1889 17.2125C18.8143 18.0284 18.5646 18.5724 18.0114 19.4162C17.552 20.1156 17.0064 20.8806 16.4064 21.4562C15.8064 22.0318 15.1708 22.3956 14.5314 22.4012C13.9145 22.4068 13.5639 22.2231 13.0314 21.9812C12.4989 21.7393 11.8108 21.4618 10.7514 21.4712C9.6939 21.4768 8.9964 21.7431 8.4564 21.9812C7.9164 22.2193 7.56203 22.4068 6.9414 22.4012C6.28515 22.3956 5.67578 22.0768 5.0964 21.5462C4.51703 21.0156 3.9939 20.2918 3.5364 19.5962C1.0164 15.7562 0.813905 11.2449 2.2614 9.02119C3.32265 7.38807 6.0864 6.45619 6.5064 6.45619Z" fill="black"/>
<path d="M13.9764 1.46119C13.9445 2.43057 13.6127 3.37932 13.0614 4.08619C12.4839 4.82869 11.5127 5.34244 10.5714 5.49619C10.5883 4.56432 10.9558 3.59869 11.5164 2.91619C12.1052 2.20369 13.0802 1.68994 13.9764 1.46119Z" fill="black"/>
</svg>
